TITLE ""
FILE "LR_black_phrase_B06.mp3" MP3
  TRACK 01 AUDIO
    TITLE "LR_black_phrase_B06_001"
    INDEX 01 00:00:00
  TRACK 02 AUDIO
    TITLE "LR_black_phrase_B06_002"
    INDEX 01 00:00:14
  TRACK 03 AUDIO
    TITLE "LR_black_phrase_B06_003"
    INDEX 01 00:01:37
  TRACK 04 AUDIO
    TITLE "LR_black_phrase_B06_004"
    INDEX 01 00:02:03
  TRACK 05 AUDIO
    TITLE "LR_black_phrase_B06_005"
    INDEX 01 00:04:06
  TRACK 06 AUDIO
    TITLE "LR_black_phrase_B06_006"
    INDEX 01 00:05:04
  TRACK 07 AUDIO
    TITLE "LR_black_phrase_B06_007"
    INDEX 01 00:07:14
  TRACK 08 AUDIO
    TITLE "LR_black_phrase_B06_008"
    INDEX 01 00:07:55
  TRACK 09 AUDIO
    TITLE "LR_black_phrase_B06_009"
    INDEX 01 00:09:70
  TRACK 10 AUDIO
    TITLE "LR_black_phrase_B06_010"
    INDEX 01 00:10:24
  TRACK 11 AUDIO
    TITLE "LR_black_phrase_B06_011"
    INDEX 01 00:12:41
  TRACK 12 AUDIO
    TITLE "LR_black_phrase_B06_012"
    INDEX 01 00:13:46
  TRACK 13 AUDIO
    TITLE "LR_black_phrase_B06_013"
    INDEX 01 00:14:52
  TRACK 14 AUDIO
    TITLE "LR_black_phrase_B06_014"
    INDEX 01 00:15:18
  TRACK 15 AUDIO
    TITLE "LR_black_phrase_B06_015"
    INDEX 01 00:18:02
  TRACK 16 AUDIO
    TITLE "LR_black_phrase_B06_016"
    INDEX 01 00:19:02
  TRACK 17 AUDIO
    TITLE "LR_black_phrase_B06_017"
    INDEX 01 00:21:01
  TRACK 18 AUDIO
    TITLE "LR_black_phrase_B06_018"
    INDEX 01 00:21:40
  TRACK 19 AUDIO
    TITLE "LR_black_phrase_B06_019"
    INDEX 01 00:23:37
  TRACK 20 AUDIO
    TITLE "LR_black_phrase_B06_020"
    INDEX 01 00:23:66
  TRACK 21 AUDIO
    TITLE "LR_black_phrase_B06_021"
    INDEX 01 00:25:65
  TRACK 22 AUDIO
    TITLE "LR_black_phrase_B06_022"
    INDEX 01 00:26:70
  TRACK 23 AUDIO
    TITLE "LR_black_phrase_B06_023"
    INDEX 01 00:28:18
  TRACK 24 AUDIO
    TITLE "LR_black_phrase_B06_024"
    INDEX 01 00:28:60
  TRACK 25 AUDIO
    TITLE "LR_black_phrase_B06_025"
    INDEX 01 00:30:17
  TRACK 26 AUDIO
    TITLE "LR_black_phrase_B06_026"
    INDEX 01 00:31:17
  TRACK 27 AUDIO
    TITLE "LR_black_phrase_B06_027"
    INDEX 01 00:33:41
  TRACK 28 AUDIO
    TITLE "LR_black_phrase_B06_028"
    INDEX 01 00:34:07
  TRACK 29 AUDIO
    TITLE "LR_black_phrase_B06_029"
    INDEX 01 00:36:34
  TRACK 30 AUDIO
    TITLE "LR_black_phrase_B06_030"
    INDEX 01 00:36:63
  TRACK 31 AUDIO
    TITLE "LR_black_phrase_B06_031"
    INDEX 01 00:39:12
  TRACK 32 AUDIO
    TITLE "LR_black_phrase_B06_032"
    INDEX 01 00:40:10
  TRACK 33 AUDIO
    TITLE "LR_black_phrase_B06_033"
    INDEX 01 00:41:27
  TRACK 34 AUDIO
    TITLE "LR_black_phrase_B06_034"
    INDEX 01 00:41:62
  TRACK 35 AUDIO
    TITLE "LR_black_phrase_B06_035"
    INDEX 01 00:43:24
  TRACK 36 AUDIO
    TITLE "LR_black_phrase_B06_036"
    INDEX 01 00:44:25
  TRACK 37 AUDIO
    TITLE "LR_black_phrase_B06_037"
    INDEX 01 00:46:65
  TRACK 38 AUDIO
    TITLE "LR_black_phrase_B06_038"
    INDEX 01 00:47:22
  TRACK 39 AUDIO
    TITLE "LR_black_phrase_B06_039"
    INDEX 01 00:49:66
  TRACK 40 AUDIO
    TITLE "LR_black_phrase_B06_040"
    INDEX 01 00:50:10
  TRACK 41 AUDIO
    TITLE "LR_black_phrase_B06_041"
    INDEX 01 00:52:54
  TRACK 42 AUDIO
    TITLE "LR_black_phrase_B06_042"
    INDEX 01 00:53:48
  TRACK 43 AUDIO
    TITLE "LR_black_phrase_B06_043"
    INDEX 01 00:54:65
  TRACK 44 AUDIO
    TITLE "LR_black_phrase_B06_044"
    INDEX 01 00:55:25
  TRACK 45 AUDIO
    TITLE "LR_black_phrase_B06_045"
    INDEX 01 00:57:61
  TRACK 46 AUDIO
    TITLE "LR_black_phrase_B06_046"
    INDEX 01 00:58:61
  TRACK 47 AUDIO
    TITLE "LR_black_phrase_B06_047"
    INDEX 01 01:00:36
  TRACK 48 AUDIO
    TITLE "LR_black_phrase_B06_048"
    INDEX 01 01:00:69
  TRACK 49 AUDIO
    TITLE "LR_black_phrase_B06_049"
    INDEX 01 01:02:51
  TRACK 50 AUDIO
    TITLE "LR_black_phrase_B06_050"
    INDEX 01 01:02:72
  TRACK 51 AUDIO
    TITLE "LR_black_phrase_B06_051"
    INDEX 01 01:04:51
  TRACK 52 AUDIO
    TITLE "LR_black_phrase_B06_052"
    INDEX 01 01:05:45
  TRACK 53 AUDIO
    TITLE "LR_black_phrase_B06_053"
    INDEX 01 01:06:58
  TRACK 54 AUDIO
    TITLE "LR_black_phrase_B06_054"
    INDEX 01 01:07:20
  TRACK 55 AUDIO
    TITLE "LR_black_phrase_B06_055"
    INDEX 01 01:09:31
  TRACK 56 AUDIO
    TITLE "LR_black_phrase_B06_056"
    INDEX 01 01:10:31
  TRACK 57 AUDIO
    TITLE "LR_black_phrase_B06_057"
    INDEX 01 01:12:25
  TRACK 58 AUDIO
    TITLE "LR_black_phrase_B06_058"
    INDEX 01 01:12:61
  TRACK 59 AUDIO
    TITLE "LR_black_phrase_B06_059"
    INDEX 01 01:14:73
  TRACK 60 AUDIO
    TITLE "LR_black_phrase_B06_060"
    INDEX 01 01:15:18
  TRACK 61 AUDIO
    TITLE "LR_black_phrase_B06_061"
    INDEX 01 01:17:31
  TRACK 62 AUDIO
    TITLE "LR_black_phrase_B06_062"
    INDEX 01 01:18:30
  TRACK 63 AUDIO
    TITLE "LR_black_phrase_B06_063"
    INDEX 01 01:19:39
  TRACK 64 AUDIO
    TITLE "LR_black_phrase_B06_064"
    INDEX 01 01:20:05
  TRACK 65 AUDIO
    TITLE "LR_black_phrase_B06_065"
    INDEX 01 01:22:38
  TRACK 66 AUDIO
    TITLE "LR_black_phrase_B06_066"
    INDEX 01 01:23:37
  TRACK 67 AUDIO
    TITLE "LR_black_phrase_B06_067"
    INDEX 01 01:25:10
  TRACK 68 AUDIO
    TITLE "LR_black_phrase_B06_068"
    INDEX 01 01:25:50
  TRACK 69 AUDIO
    TITLE "LR_black_phrase_B06_069"
    INDEX 01 01:27:52
  TRACK 70 AUDIO
    TITLE "LR_black_phrase_B06_070"
    INDEX 01 01:28:07
  TRACK 71 AUDIO
    TITLE "LR_black_phrase_B06_071"
    INDEX 01 01:30:10
  TRACK 72 AUDIO
    TITLE "LR_black_phrase_B06_072"
    INDEX 01 01:31:15
  TRACK 73 AUDIO
    TITLE "LR_black_phrase_B06_073"
    INDEX 01 01:32:42
  TRACK 74 AUDIO
    TITLE "LR_black_phrase_B06_074"
    INDEX 01 01:33:06
  TRACK 75 AUDIO
    TITLE "LR_black_phrase_B06_075"
    INDEX 01 01:35:38
  TRACK 76 AUDIO
    TITLE "LR_black_phrase_B06_076"
    INDEX 01 01:36:38
  TRACK 77 AUDIO
    TITLE "LR_black_phrase_B06_077"
    INDEX 01 01:38:50
  TRACK 78 AUDIO
    TITLE "LR_black_phrase_B06_078"
    INDEX 01 01:39:13
  TRACK 79 AUDIO
    TITLE "LR_black_phrase_B06_079"
    INDEX 01 01:41:58
  TRACK 80 AUDIO
    TITLE "LR_black_phrase_B06_080"
    INDEX 01 01:42:13
  TRACK 81 AUDIO
    TITLE "LR_black_phrase_B06_081"
    INDEX 01 01:44:59
  TRACK 82 AUDIO
    TITLE "LR_black_phrase_B06_082"
    INDEX 01 01:45:62
  TRACK 83 AUDIO
    TITLE "LR_black_phrase_B06_083"
    INDEX 01 01:47:26
  TRACK 84 AUDIO
    TITLE "LR_black_phrase_B06_084"
    INDEX 01 01:47:65
  TRACK 85 AUDIO
    TITLE "LR_black_phrase_B06_085"
    INDEX 01 01:49:17
  TRACK 86 AUDIO
    TITLE "LR_black_phrase_B06_086"
    INDEX 01 01:50:16
  TRACK 87 AUDIO
    TITLE "LR_black_phrase_B06_087"
    INDEX 01 01:52:58
  TRACK 88 AUDIO
    TITLE "LR_black_phrase_B06_088"
    INDEX 01 01:53:22
  TRACK 89 AUDIO
    TITLE "LR_black_phrase_B06_089"
    INDEX 01 01:56:27
  TRACK 90 AUDIO
    TITLE "LR_black_phrase_B06_090"
    INDEX 01 01:56:54
  TRACK 91 AUDIO
    TITLE "LR_black_phrase_B06_091"
    INDEX 01 01:59:58
  TRACK 92 AUDIO
    TITLE "LR_black_phrase_B06_092"
    INDEX 01 02:00:58
  TRACK 93 AUDIO
    TITLE "LR_black_phrase_B06_093"
    INDEX 01 02:01:59
  TRACK 94 AUDIO
    TITLE "LR_black_phrase_B06_094"
    INDEX 01 02:02:21
  TRACK 95 AUDIO
    TITLE "LR_black_phrase_B06_095"
    INDEX 01 02:04:56
  TRACK 96 AUDIO
    TITLE "LR_black_phrase_B06_096"
    INDEX 01 02:05:57
  TRACK 97 AUDIO
    TITLE "LR_black_phrase_B06_097"
    INDEX 01 02:08:06
  TRACK 98 AUDIO
    TITLE "LR_black_phrase_B06_098"
    INDEX 01 02:08:40
  TRACK 99 AUDIO
    TITLE "LR_black_phrase_B06_099"
    INDEX 01 02:10:48
  TRACK 100 AUDIO
    TITLE "LR_black_phrase_B06_100"
    INDEX 01 02:10:70
  TRACK 101 AUDIO
    TITLE "LR_black_phrase_B06_101"
    INDEX 01 02:13:06
  TRACK 102 AUDIO
    TITLE "LR_black_phrase_B06_102"
    INDEX 01 02:13:74
  TRACK 103 AUDIO
    TITLE "LR_black_phrase_B06_103"
    INDEX 01 02:15:24
  TRACK 104 AUDIO
    TITLE "LR_black_phrase_B06_104"
    INDEX 01 02:15:59
  TRACK 105 AUDIO
    TITLE "LR_black_phrase_B06_105"
    INDEX 01 02:17:64
  TRACK 106 AUDIO
    TITLE "LR_black_phrase_B06_106"
    INDEX 01 02:18:62
  TRACK 107 AUDIO
    TITLE "LR_black_phrase_B06_107"
    INDEX 01 02:21:29
  TRACK 108 AUDIO
    TITLE "LR_black_phrase_B06_108"
    INDEX 01 02:21:62
  TRACK 109 AUDIO
    TITLE "LR_black_phrase_B06_109"
    INDEX 01 02:24:15
  TRACK 110 AUDIO
    TITLE "LR_black_phrase_B06_110"
    INDEX 01 02:24:41
  TRACK 111 AUDIO
    TITLE "LR_black_phrase_B06_111"
    INDEX 01 02:26:65
  TRACK 112 AUDIO
    TITLE "LR_black_phrase_B06_112"
    INDEX 01 02:27:64
  TRACK 113 AUDIO
    TITLE "LR_black_phrase_B06_113"
    INDEX 01 02:28:62
  TRACK 114 AUDIO
    TITLE "LR_black_phrase_B06_114"
    INDEX 01 02:29:22
  TRACK 115 AUDIO
    TITLE "LR_black_phrase_B06_115"
    INDEX 01 02:31:47
  TRACK 116 AUDIO
    TITLE "LR_black_phrase_B06_116"
    INDEX 01 02:32:46
  TRACK 117 AUDIO
    TITLE "LR_black_phrase_B06_117"
    INDEX 01 02:34:72
  TRACK 118 AUDIO
    TITLE "LR_black_phrase_B06_118"
    INDEX 01 02:35:35
  TRACK 119 AUDIO
    TITLE "LR_black_phrase_B06_119"
    INDEX 01 02:37:16
  TRACK 120 AUDIO
    TITLE "LR_black_phrase_B06_120"
    INDEX 01 02:37:39
  TRACK 121 AUDIO
    TITLE "LR_black_phrase_B06_121"
    INDEX 01 02:39:21
  TRACK 122 AUDIO
    TITLE "LR_black_phrase_B06_122"
    INDEX 01 02:40:22
  TRACK 123 AUDIO
    TITLE "LR_black_phrase_B06_123"
    INDEX 01 02:41:43
  TRACK 124 AUDIO
    TITLE "LR_black_phrase_B06_124"
    INDEX 01 02:42:09
  TRACK 125 AUDIO
    TITLE "LR_black_phrase_B06_125"
    INDEX 01 02:44:45
  TRACK 126 AUDIO
    TITLE "LR_black_phrase_B06_126"
    INDEX 01 02:45:45
  TRACK 127 AUDIO
    TITLE "LR_black_phrase_B06_127"
    INDEX 01 02:47:46
  TRACK 128 AUDIO
    TITLE "LR_black_phrase_B06_128"
    INDEX 01 02:48:10
  TRACK 129 AUDIO
    TITLE "LR_black_phrase_B06_129"
    INDEX 01 02:50:05
  TRACK 130 AUDIO
    TITLE "LR_black_phrase_B06_130"
    INDEX 01 02:50:34
  TRACK 131 AUDIO
    TITLE "LR_black_phrase_B06_131"
    INDEX 01 02:52:29
  TRACK 132 AUDIO
    TITLE "LR_black_phrase_B06_132"
    INDEX 01 02:53:34
  TRACK 133 AUDIO
    TITLE "LR_black_phrase_B06_133"
    INDEX 01 02:54:48
  TRACK 134 AUDIO
    TITLE "LR_black_phrase_B06_134"
    INDEX 01 02:55:10
  TRACK 135 AUDIO
    TITLE "LR_black_phrase_B06_135"
    INDEX 01 02:57:09
  TRACK 136 AUDIO
    TITLE "LR_black_phrase_B06_136"
    INDEX 01 02:58:08
  TRACK 137 AUDIO
    TITLE "LR_black_phrase_B06_137"
    INDEX 01 03:00:33
  TRACK 138 AUDIO
    TITLE "LR_black_phrase_B06_138"
    INDEX 01 03:00:74
  TRACK 139 AUDIO
    TITLE "LR_black_phrase_B06_139"
    INDEX 01 03:03:11
  TRACK 140 AUDIO
    TITLE "LR_black_phrase_B06_140"
    INDEX 01 03:03:43
  TRACK 141 AUDIO
    TITLE "LR_black_phrase_B06_141"
    INDEX 01 03:05:57
  TRACK 142 AUDIO
    TITLE "LR_black_phrase_B06_142"
    INDEX 01 03:06:63
  TRACK 143 AUDIO
    TITLE "LR_black_phrase_B06_143"
    INDEX 01 03:08:05
  TRACK 144 AUDIO
    TITLE "LR_black_phrase_B06_144"
    INDEX 01 03:08:44
  TRACK 145 AUDIO
    TITLE "LR_black_phrase_B06_145"
    INDEX 01 03:11:21
  TRACK 146 AUDIO
    TITLE "LR_black_phrase_B06_146"
    INDEX 01 03:12:20
  TRACK 147 AUDIO
    TITLE "LR_black_phrase_B06_147"
    INDEX 01 03:13:47
  TRACK 148 AUDIO
    TITLE "LR_black_phrase_B06_148"
    INDEX 01 03:14:11
  TRACK 149 AUDIO
    TITLE "LR_black_phrase_B06_149"
    INDEX 01 03:16:02
  TRACK 150 AUDIO
    TITLE "LR_black_phrase_B06_150"
    INDEX 01 03:16:30
  TRACK 151 AUDIO
    TITLE "LR_black_phrase_B06_151"
    INDEX 01 03:18:19
  TRACK 152 AUDIO
    TITLE "LR_black_phrase_B06_152"
    INDEX 01 03:19:16
  TRACK 153 AUDIO
    TITLE "LR_black_phrase_B06_153"
    INDEX 01 03:20:43
  TRACK 154 AUDIO
    TITLE "LR_black_phrase_B06_154"
    INDEX 01 03:21:07
  TRACK 155 AUDIO
    TITLE "LR_black_phrase_B06_155"
    INDEX 01 03:23:67
  TRACK 156 AUDIO
    TITLE "LR_black_phrase_B06_156"
    INDEX 01 03:24:66
  TRACK 157 AUDIO
    TITLE "LR_black_phrase_B06_157"
    INDEX 01 03:27:29
  TRACK 158 AUDIO
    TITLE "LR_black_phrase_B06_158"
    INDEX 01 03:27:63
  TRACK 159 AUDIO
    TITLE "LR_black_phrase_B06_159"
    INDEX 01 03:30:06
  TRACK 160 AUDIO
    TITLE "LR_black_phrase_B06_160"
    INDEX 01 03:30:32
  TRACK 161 AUDIO
    TITLE "LR_black_phrase_B06_161"
    INDEX 01 03:32:50
  TRACK 162 AUDIO
    TITLE "LR_black_phrase_B06_162"
    INDEX 01 03:33:52
  TRACK 163 AUDIO
    TITLE "LR_black_phrase_B06_163"
    INDEX 01 03:34:51
  TRACK 164 AUDIO
    TITLE "LR_black_phrase_B06_164"
    INDEX 01 03:35:11
  TRACK 165 AUDIO
    TITLE "LR_black_phrase_B06_165"
    INDEX 01 03:36:26
  TRACK 166 AUDIO
    TITLE "LR_black_phrase_B06_166"
    INDEX 01 03:37:20
  TRACK 167 AUDIO
    TITLE "LR_black_phrase_B06_167"
    INDEX 01 03:39:37
  TRACK 168 AUDIO
    TITLE "LR_black_phrase_B06_168"
    INDEX 01 03:40:03
  TRACK 169 AUDIO
    TITLE "LR_black_phrase_B06_169"
    INDEX 01 03:41:67
  TRACK 170 AUDIO
    TITLE "LR_black_phrase_B06_170"
    INDEX 01 03:42:17
  TRACK 171 AUDIO
    TITLE "LR_black_phrase_B06_171"
    INDEX 01 03:44:08
  TRACK 172 AUDIO
    TITLE "LR_black_phrase_B06_172"
    INDEX 01 03:45:02
  TRACK 173 AUDIO
    TITLE "LR_black_phrase_B06_173"
    INDEX 01 03:46:17
  TRACK 174 AUDIO
    TITLE "LR_black_phrase_B06_174"
    INDEX 01 03:46:52
  TRACK 175 AUDIO
    TITLE "LR_black_phrase_B06_175"
    INDEX 01 03:48:57
  TRACK 176 AUDIO
    TITLE "LR_black_phrase_B06_176"
    INDEX 01 03:49:57
  TRACK 177 AUDIO
    TITLE "LR_black_phrase_B06_177"
    INDEX 01 03:52:24
  TRACK 178 AUDIO
    TITLE "LR_black_phrase_B06_178"
    INDEX 01 03:52:57
  TRACK 179 AUDIO
    TITLE "LR_black_phrase_B06_179"
    INDEX 01 03:55:22
  TRACK 180 AUDIO
    TITLE "LR_black_phrase_B06_180"
    INDEX 01 03:55:41
  TRACK 181 AUDIO
    TITLE "LR_black_phrase_B06_181"
    INDEX 01 03:58:07
  TRACK 182 AUDIO
    TITLE "LR_black_phrase_B06_182"
    INDEX 01 03:59:08
  TRACK 183 AUDIO
    TITLE "LR_black_phrase_B06_183"
    INDEX 01 04:00:21
  TRACK 184 AUDIO
    TITLE "LR_black_phrase_B06_184"
    INDEX 01 04:00:60
  TRACK 185 AUDIO
    TITLE "LR_black_phrase_B06_185"
    INDEX 01 04:02:63
  TRACK 186 AUDIO
    TITLE "LR_black_phrase_B06_186"
    INDEX 01 04:03:63
  TRACK 187 AUDIO
    TITLE "LR_black_phrase_B06_187"
    INDEX 01 04:05:28
  TRACK 188 AUDIO
    TITLE "LR_black_phrase_B06_188"
    INDEX 01 04:05:65
  TRACK 189 AUDIO
    TITLE "LR_black_phrase_B06_189"
    INDEX 01 04:08:01
  TRACK 190 AUDIO
    TITLE "LR_black_phrase_B06_190"
    INDEX 01 04:08:30
  TRACK 191 AUDIO
    TITLE "LR_black_phrase_B06_191"
    INDEX 01 04:10:43
  TRACK 192 AUDIO
    TITLE "LR_black_phrase_B06_192"
    INDEX 01 04:11:44
  TRACK 193 AUDIO
    TITLE "LR_black_phrase_B06_193"
    INDEX 01 04:12:65
  TRACK 194 AUDIO
    TITLE "LR_black_phrase_B06_194"
    INDEX 01 04:13:30
  TRACK 195 AUDIO
    TITLE "LR_black_phrase_B06_195"
    INDEX 01 04:14:33
  TRACK 196 AUDIO
    TITLE "LR_black_phrase_B06_196"
    INDEX 01 04:15:32
  TRACK 197 AUDIO
    TITLE "LR_black_phrase_B06_197"
    INDEX 01 04:16:61
  TRACK 198 AUDIO
    TITLE "LR_black_phrase_B06_198"
    INDEX 01 04:17:25
  TRACK 199 AUDIO
    TITLE "LR_black_phrase_B06_199"
    INDEX 01 04:19:26
  TRACK 200 AUDIO
    TITLE "LR_black_phrase_B06_200"
    INDEX 01 04:19:54
  TRACK 201 AUDIO
    TITLE "LR_black_phrase_B06_201"
    INDEX 01 04:21:57
  TRACK 202 AUDIO
    TITLE "LR_black_phrase_B06_202"
    INDEX 01 04:22:60
  TRACK 203 AUDIO
    TITLE "LR_black_phrase_B06_203"
    INDEX 01 04:23:71
  TRACK 204 AUDIO
    TITLE "LR_black_phrase_B06_204"
    INDEX 01 04:24:37
  TRACK 205 AUDIO
    TITLE "LR_black_phrase_B06_205"
    INDEX 01 04:27:08
  TRACK 206 AUDIO
    TITLE "LR_black_phrase_B06_206"
    INDEX 01 04:28:08
  TRACK 207 AUDIO
    TITLE "LR_black_phrase_B06_207"
    INDEX 01 04:30:34
  TRACK 208 AUDIO
    TITLE "LR_black_phrase_B06_208"
    INDEX 01 04:31:00
  TRACK 209 AUDIO
    TITLE "LR_black_phrase_B06_209"
    INDEX 01 04:32:66
  TRACK 210 AUDIO
    TITLE "LR_black_phrase_B06_210"
    INDEX 01 04:33:19
  TRACK 211 AUDIO
    TITLE "LR_black_phrase_B06_211"
    INDEX 01 04:35:10
  TRACK 212 AUDIO
    TITLE "LR_black_phrase_B06_212"
    INDEX 01 04:36:11
  TRACK 213 AUDIO
    TITLE "LR_black_phrase_B06_213"
    INDEX 01 04:37:44
  TRACK 214 AUDIO
    TITLE "LR_black_phrase_B06_214"
    INDEX 01 04:38:02
  TRACK 215 AUDIO
    TITLE "LR_black_phrase_B06_215"
    INDEX 01 04:39:51
  TRACK 216 AUDIO
    TITLE "LR_black_phrase_B06_216"
    INDEX 01 04:40:52
  TRACK 217 AUDIO
    TITLE "LR_black_phrase_B06_217"
    INDEX 01 04:43:09
  TRACK 218 AUDIO
    TITLE "LR_black_phrase_B06_218"
    INDEX 01 04:43:42
  TRACK 219 AUDIO
    TITLE "LR_black_phrase_B06_219"
    INDEX 01 04:46:25
  TRACK 220 AUDIO
    TITLE "LR_black_phrase_B06_220"
    INDEX 01 04:46:51
  TRACK 221 AUDIO
    TITLE "LR_black_phrase_B06_221"
    INDEX 01 04:49:33
  TRACK 222 AUDIO
    TITLE "LR_black_phrase_B06_222"
    INDEX 01 04:50:37
  TRACK 223 AUDIO
    TITLE "LR_black_phrase_B06_223"
    INDEX 01 04:51:63
  TRACK 224 AUDIO
    TITLE "LR_black_phrase_B06_224"
    INDEX 01 04:52:28
  TRACK 225 AUDIO
    TITLE "LR_black_phrase_B06_225"
    INDEX 01 04:55:06
  TRACK 226 AUDIO
    TITLE "LR_black_phrase_B06_226"
    INDEX 01 04:56:04
  TRACK 227 AUDIO
    TITLE "LR_black_phrase_B06_227"
    INDEX 01 04:58:15
  TRACK 228 AUDIO
    TITLE "LR_black_phrase_B06_228"
    INDEX 01 04:58:50
  TRACK 229 AUDIO
    TITLE "LR_black_phrase_B06_229"
    INDEX 01 05:01:27
  TRACK 230 AUDIO
    TITLE "LR_black_phrase_B06_230"
    INDEX 01 05:01:46
  TRACK 231 AUDIO
    TITLE "LR_black_phrase_B06_231"
    INDEX 01 05:04:23
  TRACK 232 AUDIO
    TITLE "LR_black_phrase_B06_232"
    INDEX 01 05:05:19
  TRACK 233 AUDIO
    TITLE "LR_black_phrase_B06_233"
    INDEX 01 05:06:34
  TRACK 234 AUDIO
    TITLE "LR_black_phrase_B06_234"
    INDEX 01 05:07:00
  TRACK 235 AUDIO
    TITLE "LR_black_phrase_B06_235"
    INDEX 01 05:09:30
  TRACK 236 AUDIO
    TITLE "LR_black_phrase_B06_236"
    INDEX 01 05:10:28
  TRACK 237 AUDIO
    TITLE "LR_black_phrase_B06_237"
    INDEX 01 05:12:50
  TRACK 238 AUDIO
    TITLE "LR_black_phrase_B06_238"
    INDEX 01 05:13:14
  TRACK 239 AUDIO
    TITLE "LR_black_phrase_B06_239"
    INDEX 01 05:15:31
  TRACK 240 AUDIO
    TITLE "LR_black_phrase_B06_240"
    INDEX 01 05:15:60
  TRACK 241 AUDIO
    TITLE "LR_black_phrase_B06_241"
    INDEX 01 05:18:02
  TRACK 242 AUDIO
    TITLE "LR_black_phrase_B06_242"
    INDEX 01 05:19:07
  TRACK 243 AUDIO
    TITLE "LR_black_phrase_B06_243"
    INDEX 01 05:20:22
  TRACK 244 AUDIO
    TITLE "LR_black_phrase_B06_244"
    INDEX 01 05:20:61
  TRACK 245 AUDIO
    TITLE "LR_black_phrase_B06_245"
    INDEX 01 05:22:01
  TRACK 246 AUDIO
    TITLE "LR_black_phrase_B06_246"
    INDEX 01 05:22:72
  TRACK 247 AUDIO
    TITLE "LR_black_phrase_B06_247"
    INDEX 01 05:25:02
  TRACK 248 AUDIO
    TITLE "LR_black_phrase_B06_248"
    INDEX 01 05:25:39
  TRACK 249 AUDIO
    TITLE "LR_black_phrase_B06_249"
    INDEX 01 05:28:04
  TRACK 250 AUDIO
    TITLE "LR_black_phrase_B06_250"
    INDEX 01 05:28:35
  TRACK 251 AUDIO
    TITLE "LR_black_phrase_B06_251"
    INDEX 01 05:31:00
  TRACK 252 AUDIO
    TITLE "LR_black_phrase_B06_252"
    INDEX 01 05:32:04
  TRACK 253 AUDIO
    TITLE "LR_black_phrase_B06_253"
    INDEX 01 05:33:11
  TRACK 254 AUDIO
    TITLE "LR_black_phrase_B06_254"
    INDEX 01 05:33:52
  TRACK 255 AUDIO
    TITLE "LR_black_phrase_B06_255"
    INDEX 01 05:36:15
  TRACK 256 AUDIO
    TITLE "LR_black_phrase_B06_256"
    INDEX 01 05:37:11
  TRACK 257 AUDIO
    TITLE "LR_black_phrase_B06_257"
    INDEX 01 05:39:19
  TRACK 258 AUDIO
    TITLE "LR_black_phrase_B06_258"
    INDEX 01 05:39:59
  TRACK 259 AUDIO
    TITLE "LR_black_phrase_B06_259"
    INDEX 01 05:41:48
  TRACK 260 AUDIO
    TITLE "LR_black_phrase_B06_260"
    INDEX 01 05:42:02
  TRACK 261 AUDIO
    TITLE "LR_black_phrase_B06_261"
    INDEX 01 05:43:68
  TRACK 262 AUDIO
    TITLE "LR_black_phrase_B06_262"
    INDEX 01 05:44:72
  TRACK 263 AUDIO
    TITLE "LR_black_phrase_B06_263"
    INDEX 01 05:46:21
  TRACK 264 AUDIO
    TITLE "LR_black_phrase_B06_264"
    INDEX 01 05:46:59
  TRACK 265 AUDIO
    TITLE "LR_black_phrase_B06_265"
    INDEX 01 05:48:16
  TRACK 266 AUDIO
    TITLE "LR_black_phrase_B06_266"
    INDEX 01 05:49:18
  TRACK 267 AUDIO
    TITLE "LR_black_phrase_B06_267"
    INDEX 01 05:50:74
  TRACK 268 AUDIO
    TITLE "LR_black_phrase_B06_268"
    INDEX 01 05:51:40
  TRACK 269 AUDIO
    TITLE "LR_black_phrase_B06_269"
    INDEX 01 05:54:27
  TRACK 270 AUDIO
    TITLE "LR_black_phrase_B06_270"
    INDEX 01 05:54:56
  TRACK 271 AUDIO
    TITLE "LR_black_phrase_B06_271"
    INDEX 01 05:57:43
  TRACK 272 AUDIO
    TITLE "LR_black_phrase_B06_272"
    INDEX 01 05:58:42
  TRACK 273 AUDIO
    TITLE "LR_black_phrase_B06_273"
    INDEX 01 05:59:53
  TRACK 274 AUDIO
    TITLE "LR_black_phrase_B06_274"
    INDEX 01 06:00:18
  TRACK 275 AUDIO
    TITLE "LR_black_phrase_B06_275"
    INDEX 01 06:01:29
  TRACK 276 AUDIO
    TITLE "LR_black_phrase_B06_276"
    INDEX 01 06:02:28
  TRACK 277 AUDIO
    TITLE "LR_black_phrase_B06_277"
    INDEX 01 06:04:29
  TRACK 278 AUDIO
    TITLE "LR_black_phrase_B06_278"
    INDEX 01 06:04:62
  TRACK 279 AUDIO
    TITLE "LR_black_phrase_B06_279"
    INDEX 01 06:07:35
  TRACK 280 AUDIO
    TITLE "LR_black_phrase_B06_280"
    INDEX 01 06:07:61
  TRACK 281 AUDIO
    TITLE "LR_black_phrase_B06_281"
    INDEX 01 06:10:32
  TRACK 282 AUDIO
    TITLE "LR_black_phrase_B06_282"
    INDEX 01 06:11:33
  TRACK 283 AUDIO
    TITLE "LR_black_phrase_B06_283"
    INDEX 01 06:12:37
  TRACK 284 AUDIO
    TITLE "LR_black_phrase_B06_284"
    INDEX 01 06:12:74
  TRACK 285 AUDIO
    TITLE "LR_black_phrase_B06_285"
    INDEX 01 06:15:05
  TRACK 286 AUDIO
    TITLE "LR_black_phrase_B06_286"
    INDEX 01 06:16:07
  TRACK 287 AUDIO
    TITLE "LR_black_phrase_B06_287"
    INDEX 01 06:17:73
  TRACK 288 AUDIO
    TITLE "LR_black_phrase_B06_288"
    INDEX 01 06:18:33
  TRACK 289 AUDIO
    TITLE "LR_black_phrase_B06_289"
    INDEX 01 06:20:14
  TRACK 290 AUDIO
    TITLE "LR_black_phrase_B06_290"
    INDEX 01 06:20:44
  TRACK 291 AUDIO
    TITLE "LR_black_phrase_B06_291"
    INDEX 01 06:22:25
  TRACK 292 AUDIO
    TITLE "LR_black_phrase_B06_292"
    INDEX 01 06:23:27
  TRACK 293 AUDIO
    TITLE "LR_black_phrase_B06_293"
    INDEX 01 06:24:42
  TRACK 294 AUDIO
    TITLE "LR_black_phrase_B06_294"
    INDEX 01 06:25:02
  TRACK 295 AUDIO
    TITLE "LR_black_phrase_B06_295"
    INDEX 01 06:27:05
  TRACK 296 AUDIO
    TITLE "LR_black_phrase_B06_296"
    INDEX 01 06:28:00
  TRACK 297 AUDIO
    TITLE "LR_black_phrase_B06_297"
    INDEX 01 06:29:74
  TRACK 298 AUDIO
    TITLE "LR_black_phrase_B06_298"
    INDEX 01 06:30:34
  TRACK 299 AUDIO
    TITLE "LR_black_phrase_B06_299"
    INDEX 01 06:32:59
  TRACK 300 AUDIO
    TITLE "LR_black_phrase_B06_300"
    INDEX 01 06:33:05
  TRACK 301 AUDIO
    TITLE "LR_black_phrase_B06_301"
    INDEX 01 06:35:30
